<?xml version="1.0" encoding="UTF-8"?>
<svg width="8px" height="11px" viewBox="0 0 8 11" version="1.1" xmlns="http://www.w3.org/2000/svg" xmlns:xlink="http://www.w3.org/1999/xlink">
    <!-- Generator: Sketch 52.5 (67469) - http://www.bohemiancoding.com/sketch -->
    <title>Left Arrow</title>
    <desc>Created with Sketch.</desc>
    <g id="Корзина" stroke="none" stroke-width="1" fill="none" fill-rule="evenodd">
        <g transform="translate(-45.000000, -706.000000)" fill="#8A94A6" id="Button-Back">
            <g transform="translate(0.000000, 130.000000)">
                <g transform="translate(33.070896, 561.000000)">
                    <g id="Text" transform="translate(11.044776, 11.000000)">
                        <path d="M9.57921564,6.51941301 L9.06717001,5.96520802 C8.88964297,5.78301233 8.68244428,5.69186914 8.44582538,5.69186914 C8.20442885,5.69186914 7.99957707,5.78301233 7.83110241,5.96520802 L4.51223533,9.55624961 L1.19336826,5.96529871 C1.0248936,5.78310302 0.820041819,5.69195983 0.578729103,5.69195983 C0.342026391,5.69195983 0.134827699,5.78310302 -0.0426993354,5.96529871 L-0.54803951,6.5195037 C-0.72104036,6.70659663 -0.807540784,6.93078167 -0.807540784,7.19187743 C-0.807540784,7.45787043 -0.720956542,7.67951615 -0.54803951,7.85681459 L3.89759617,12.6669077 C4.06154465,12.8540913 4.26631262,12.9476831 4.51223533,12.9476831 C4.75354805,12.9476831 4.96066292,12.8540913 5.13357996,12.6669077 L9.57921564,7.85681459 C9.7476903,7.67452822 9.83201145,7.4528825 9.83201145,7.19187743 C9.83201145,6.93567891 9.7476903,6.71158457 9.57921564,6.51941301 L9.57921564,6.51941301 Z" id="Left-Arrow" transform="translate(4.512235, 9.319776) rotate(-270.000000) translate(-4.512235, -9.319776) "></path>
                    </g>
                </g>
            </g>
        </g>
    </g>
</svg>