<?xml version="1.0" encoding="UTF-8"?>
<svg width="28px" height="17px" viewBox="0 0 28 17" version="1.1" xmlns="http://www.w3.org/2000/svg" xmlns:xlink="http://www.w3.org/1999/xlink">
    <!-- Generator: Sketch 52.5 (67469) - http://www.bohemiancoding.com/sketch -->
    <title>grid-03</title>
    <desc>Created with Sketch.</desc>
    <g id="Листинги" stroke="none" stroke-width="1" fill="none" fill-rule="evenodd">
        <g id="Листинг-Карточный-Copy" transform="translate(-1037.000000, -449.000000)" fill="#67BEEF" fill-rule="nonzero">
            <g id="grid-03" transform="translate(1037.000000, 449.000000)">
                <path d="M17.0306651,0 C17.566014,0 18,0.434833078 18,0.969334858 L18,6.80844291 C18,7.34379178 17.5651669,7.77777778 17.0306651,7.77777778 L11.1915571,7.77777778 C10.6562082,7.77777778 10.2222222,7.34294468 10.2222222,6.80844291 L10.2222222,0.969334858 C10.2222222,0.433986 10.6570553,0 11.1915571,0 L17.0306651,0 Z M16.5555556,1.44444444 L11.6666667,1.44444444 L11.6666667,6.33333333 L16.5555556,6.33333333 L16.5555556,1.44444444 Z M27.0306651,0 C27.566014,0 28,0.434833078 28,0.969334858 L28,6.80844291 C28,7.34379178 27.5651669,7.77777778 27.0306651,7.77777778 L21.1915571,7.77777778 C20.6562082,7.77777778 20.2222222,7.34294468 20.2222222,6.80844291 L20.2222222,0.969334858 C20.2222222,0.433986 20.6570553,0 21.1915571,0 L27.0306651,0 Z M26.5555556,1.44444444 L21.6666667,1.44444444 L21.6666667,6.33333333 L26.5555556,6.33333333 L26.5555556,1.44444444 Z M6.80844291,0 C7.34379178,0 7.77777778,0.434833078 7.77777778,0.969334858 L7.77777778,6.80844291 C7.77777778,7.34379178 7.34294468,7.77777778 6.80844291,7.77777778 L0.969334858,7.77777778 C0.433986,7.77777778 0,7.34294468 0,6.80844291 L0,0.969334858 C0,0.433986 0.434833078,0 0.969334858,0 L6.80844291,0 Z M6.33333333,1.44444444 L1.44444444,1.44444444 L1.44444444,6.33333333 L6.33333333,6.33333333 L6.33333333,1.44444444 Z M0,10.1915571 C0,9.65620822 0.434833078,9.22222222 0.969334858,9.22222222 L6.80844291,9.22222222 C7.34379178,9.22222222 7.77777778,9.65705532 7.77777778,10.1915571 L7.77777778,16.0306651 C7.77777778,16.566014 7.34294468,17 6.80844291,17 L0.969334858,17 C0.433986,17 0,16.5651669 0,16.0306651 L0,10.1915571 Z M1.44444444,10.6666667 L1.44444444,15.5555556 L6.33333333,15.5555556 L6.33333333,10.6666667 L1.44444444,10.6666667 Z M10.2222222,10.1915571 C10.2222222,9.65620822 10.6570553,9.22222222 11.1915571,9.22222222 L17.0306651,9.22222222 C17.566014,9.22222222 18,9.65705532 18,10.1915571 L18,16.0306651 C18,16.566014 17.5651669,17 17.0306651,17 L11.1915571,17 C10.6562082,17 10.2222222,16.5651669 10.2222222,16.0306651 L10.2222222,10.1915571 Z M11.6666667,10.6666667 L11.6666667,15.5555556 L16.5555556,15.5555556 L16.5555556,10.6666667 L11.6666667,10.6666667 Z M20.2222222,10.1915571 C20.2222222,9.65620822 20.6570553,9.22222222 21.1915571,9.22222222 L27.0306651,9.22222222 C27.566014,9.22222222 28,9.65705532 28,10.1915571 L28,16.0306651 C28,16.566014 27.5651669,17 27.0306651,17 L21.1915571,17 C20.6562082,17 20.2222222,16.5651669 20.2222222,16.0306651 L20.2222222,10.1915571 Z M21.6666667,10.6666667 L21.6666667,15.5555556 L26.5555556,15.5555556 L26.5555556,10.6666667 L21.6666667,10.6666667 Z" id="Combined-Shape"></path>
            </g>
        </g>
    </g>
</svg>