<?xml version="1.0" encoding="UTF-8"?>
<svg width="28px" height="17px" viewBox="0 0 28 17" version="1.1" xmlns="http://www.w3.org/2000/svg" xmlns:xlink="http://www.w3.org/1999/xlink">
    <!-- Generator: Sketch 52.5 (67469) - http://www.bohemiancoding.com/sketch -->
    <title>grid-02</title>
    <desc>Created with Sketch.</desc>
    <g id="Листинги" stroke="none" stroke-width="1" fill="none" fill-rule="evenodd">
        <g id="Листинг-Карточный-Copy" transform="translate(-993.000000, -449.000000)" fill="#F1F1F2" fill-rule="nonzero">
            <g id="grid-02" transform="translate(993.000000, 449.000000)">
                <path d="M26.4446721,9.22222222 C27.303656,9.22222222 28,9.65705532 28,10.1915571 L28,16.0306651 C28,16.566014 27.3078613,17 26.4446721,17 L1.55532788,17 C0.696344009,17 0,16.5651669 0,16.0306651 L0,10.1915571 C0,9.65620822 0.692138673,9.22222222 1.55532788,9.22222222 L26.4446721,9.22222222 Z M25.9777778,10.6666667 L2.02222222,10.6666667 L2.02222222,15.5555556 L25.9777778,15.5555556 L25.9777778,10.6666667 Z M26.4446721,0 C27.303656,0 28,0.434833078 28,0.969334858 L28,6.80844291 C28,7.34379178 27.3078613,7.77777778 26.4446721,7.77777778 L1.55532788,7.77777778 C0.696344009,7.77777778 0,7.34294468 0,6.80844291 L0,0.969334858 C0,0.433986 0.692138673,0 1.55532788,0 L26.4446721,0 Z M25.9777778,1.44444444 L2.02222222,1.44444444 L2.02222222,6.33333333 L25.9777778,6.33333333 L25.9777778,1.44444444 Z" id="Rectangle-560"></path>
            </g>
        </g>
    </g>
</svg>