<?xml version="1.0" encoding="UTF-8"?>
<svg width="35px" height="34px" viewBox="0 0 35 34" version="1.1" xmlns="http://www.w3.org/2000/svg" xmlns:xlink="http://www.w3.org/1999/xlink">
    <!-- Generator: Sketch 52.5 (67469) - http://www.bohemiancoding.com/sketch -->
    <title>Cansel Hover</title>
    <desc>Created with Sketch.</desc>
    <g id="Корзина" stroke="none" stroke-width="1" fill="none" fill-rule="evenodd">
        <g transform="translate(-997.000000, -428.000000)" id="Cansel-Hover">
            <g transform="translate(0.000000, 130.000000)">
                <g transform="translate(997.656716, 298.000000)">
                    <circle id="Oval-2" fill="#FAE5E8" cx="17" cy="17" r="17"></circle>
                    <path d="M23.5772006,12.7575174 L19.3194704,16.9999045 L23.5772006,21.2420907 C24.2105169,21.8733002 24.2105169,22.8957752 23.5772006,23.5269847 C23.2607643,23.8422479 22.8458955,24 22.4312284,24 C22.0158755,24 21.6009664,23.842489 21.2847721,23.5269847 L17.0261141,19.2843163 L12.7677788,23.5269445 C12.4513828,23.8422077 12.0364737,23.9999598 11.6214435,23.9999598 C11.2065344,23.9999598 10.7919076,23.8424488 10.4752293,23.5269445 C9.84191296,22.8960164 9.84191296,21.8735012 10.4752293,21.2420505 L14.7328385,16.9998644 L10.4749873,12.7575174 C9.84167092,12.1265491 9.84167092,11.1038329 10.4749873,10.4728646 C11.1081826,9.84237848 12.1340994,9.84237848 12.7675367,10.4728646 L17.0260737,14.7152516 L21.284288,10.4728646 C21.9178464,9.84237848 22.9438842,9.84237848 23.5769585,10.4728646 C24.2105169,11.1038329 24.2105169,12.1265491 23.5772006,12.7575174 Z" id="Cross" fill="#D83448" fill-rule="nonzero"></path>
                </g>
            </g>
        </g>
    </g>
</svg>